<svg width="205" height="36" viewBox="0 0 205 36" fill="none" xmlns="http://www.w3.org/2000/svg">
<path d="M116.503 25.8722C116.503 25.4271 116.43 25.0299 116.281 24.6807C116.134 24.3246 115.889 24.0096 115.546 23.7357C115.21 23.455 114.766 23.1948 114.215 22.9551C113.664 22.7155 112.985 22.4826 112.179 22.2566C111.439 22.0512 110.771 21.8287 110.173 21.589C109.581 21.3425 109.074 21.0618 108.65 20.7467C108.234 20.4318 107.914 20.0586 107.693 19.6272C107.471 19.1889 107.36 18.6719 107.36 18.0762C107.36 17.501 107.481 16.984 107.723 16.5252C107.965 16.0664 108.304 15.6761 108.741 15.3542C109.184 15.0256 109.702 14.7756 110.294 14.6045C110.892 14.4264 111.544 14.3374 112.249 14.3374C113.237 14.3374 114.101 14.5291 114.84 14.9126C115.579 15.2892 116.157 15.8131 116.574 16.4841C116.991 17.1483 117.199 17.9118 117.199 18.7746H116.382C116.382 18.0694 116.211 17.4393 115.868 16.8847C115.532 16.33 115.055 15.8952 114.437 15.5802C113.825 15.2584 113.096 15.0975 112.249 15.0975C111.376 15.0975 110.633 15.2344 110.022 15.5083C109.417 15.7822 108.956 16.1451 108.64 16.5971C108.331 17.0422 108.177 17.5284 108.177 18.0556C108.177 18.4323 108.244 18.7849 108.378 19.1136C108.52 19.4423 108.748 19.7436 109.064 20.0175C109.386 20.2914 109.82 20.5516 110.364 20.7981C110.915 21.0378 111.601 21.2706 112.421 21.4966C113.173 21.6951 113.849 21.9211 114.447 22.1745C115.052 22.421 115.569 22.712 115.999 23.0475C116.43 23.3831 116.759 23.7803 116.987 24.239C117.216 24.6978 117.33 25.2354 117.33 25.8516C117.33 26.4611 117.202 27.0055 116.947 27.4848C116.691 27.9573 116.335 28.3613 115.878 28.6968C115.428 29.0255 114.897 29.2754 114.286 29.4466C113.681 29.6178 113.029 29.7034 112.33 29.7034C111.691 29.7034 111.05 29.6247 110.404 29.4672C109.766 29.3097 109.181 29.0563 108.65 28.7071C108.119 28.3578 107.693 27.8991 107.37 27.3307C107.048 26.7624 106.886 26.0708 106.886 25.2559H107.703C107.703 25.9544 107.844 26.5433 108.126 27.0226C108.408 27.495 108.778 27.8717 109.235 28.1524C109.692 28.4332 110.19 28.6352 110.727 28.7584C111.272 28.8817 111.805 28.9433 112.33 28.9433C113.15 28.9433 113.872 28.8167 114.497 28.5633C115.129 28.3031 115.62 27.9436 115.969 27.4848C116.325 27.0192 116.503 26.4816 116.503 25.8722ZM123.711 18.3843V19.1239H118.489V18.3843H123.711ZM120.505 15.4467H121.312V26.8172C121.312 27.4129 121.383 27.8648 121.523 28.173C121.671 28.4743 121.863 28.6797 122.098 28.7893C122.34 28.892 122.599 28.9433 122.874 28.9433C123.069 28.9433 123.247 28.9331 123.409 28.9125C123.577 28.892 123.745 28.868 123.913 28.8406L123.983 29.5596C123.835 29.6076 123.644 29.6418 123.409 29.6624C123.174 29.6897 122.965 29.7034 122.784 29.7034C122.327 29.7034 121.927 29.6178 121.584 29.4466C121.241 29.2754 120.976 28.981 120.788 28.5633C120.6 28.1387 120.505 27.5567 120.505 26.8172V15.4467ZM133.177 27.454V21.7122C133.177 21.1302 133.056 20.6303 132.814 20.2126C132.572 19.7949 132.219 19.4765 131.756 19.2574C131.292 19.0314 130.724 18.9184 130.052 18.9184C129.427 18.9184 128.866 19.0314 128.368 19.2574C127.878 19.4765 127.491 19.7778 127.209 20.1613C126.927 20.5447 126.786 20.9727 126.786 21.4452L125.979 21.4349C125.979 21.0104 126.077 20.6029 126.271 20.2126C126.473 19.8223 126.756 19.4765 127.118 19.1752C127.488 18.8671 127.922 18.624 128.419 18.4459C128.923 18.2679 129.474 18.1789 130.072 18.1789C130.838 18.1789 131.513 18.3124 132.098 18.5795C132.69 18.8397 133.15 19.2334 133.479 19.7607C133.809 20.288 133.974 20.9453 133.974 21.7328V27.2178C133.974 27.6149 134 28.0155 134.054 28.4195C134.108 28.8235 134.182 29.1487 134.276 29.3953V29.498H133.399C133.325 29.2378 133.268 28.9194 133.227 28.5428C133.194 28.1661 133.177 27.8032 133.177 27.454ZM133.439 23.1913L133.459 23.9001H130.798C130.126 23.9001 129.524 23.9651 128.993 24.0952C128.463 24.2254 128.012 24.4102 127.642 24.6499C127.273 24.8896 126.991 25.1737 126.796 25.5024C126.601 25.8311 126.504 26.2009 126.504 26.6117C126.504 27.0363 126.614 27.4266 126.836 27.7827C127.058 28.1387 127.37 28.4229 127.774 28.6352C128.177 28.8406 128.644 28.9433 129.175 28.9433C129.901 28.9433 130.543 28.8167 131.101 28.5633C131.665 28.3031 132.138 27.9539 132.522 27.5156C132.905 27.0705 133.184 26.5569 133.358 25.9749L133.711 26.5707C133.597 26.9336 133.419 27.2999 133.177 27.6697C132.935 28.0394 132.623 28.3784 132.239 28.6865C131.856 28.9878 131.406 29.2344 130.888 29.4261C130.371 29.611 129.783 29.7034 129.125 29.7034C128.432 29.7034 127.827 29.5733 127.31 29.3131C126.799 29.0461 126.403 28.6831 126.12 28.2243C125.838 27.7587 125.697 27.228 125.697 26.6323C125.697 26.1187 125.811 25.6496 126.04 25.2251C126.268 24.8005 126.597 24.4376 127.028 24.1363C127.465 23.8282 127.992 23.5953 128.61 23.4378C129.235 23.2735 129.938 23.1913 130.717 23.1913H133.439ZM140.375 28.6352L144.185 18.3843H145.032L140.848 29.498H140.193L140.375 28.6352ZM136.806 18.3843L140.637 28.6557L140.808 29.498H140.143L135.959 18.3843H136.806ZM153.721 27.454V21.7122C153.721 21.1302 153.601 20.6303 153.359 20.2126C153.117 19.7949 152.764 19.4765 152.3 19.2574C151.837 19.0314 151.269 18.9184 150.596 18.9184C149.971 18.9184 149.41 19.0314 148.913 19.2574C148.423 19.4765 148.036 19.7778 147.754 20.1613C147.471 20.5447 147.33 20.9727 147.33 21.4452L146.524 21.4349C146.524 21.0104 146.621 20.6029 146.816 20.2126C147.018 19.8223 147.3 19.4765 147.663 19.1752C148.033 18.8671 148.466 18.624 148.964 18.4459C149.467 18.2679 150.019 18.1789 150.617 18.1789C151.383 18.1789 152.058 18.3124 152.643 18.5795C153.234 18.8397 153.695 19.2334 154.024 19.7607C154.353 20.288 154.518 20.9453 154.518 21.7328V27.2178C154.518 27.6149 154.545 28.0155 154.599 28.4195C154.652 28.8235 154.726 29.1487 154.82 29.3953V29.498H153.943C153.87 29.2378 153.812 28.9194 153.772 28.5428C153.738 28.1661 153.721 27.8032 153.721 27.454ZM153.984 23.1913L154.004 23.9001H151.342C150.671 23.9001 150.069 23.9651 149.538 24.0952C149.007 24.2254 148.557 24.4102 148.187 24.6499C147.818 24.8896 147.535 25.1737 147.341 25.5024C147.145 25.8311 147.048 26.2009 147.048 26.6117C147.048 27.0363 147.159 27.4266 147.381 27.7827C147.602 28.1387 147.915 28.4229 148.318 28.6352C148.721 28.8406 149.189 28.9433 149.719 28.9433C150.445 28.9433 151.087 28.8167 151.645 28.5633C152.21 28.3031 152.683 27.9539 153.066 27.5156C153.449 27.0705 153.728 26.5569 153.903 25.9749L154.256 26.5707C154.142 26.9336 153.963 27.2999 153.721 27.6697C153.48 28.0394 153.167 28.3784 152.784 28.6865C152.401 28.9878 151.951 29.2344 151.433 29.4261C150.916 29.611 150.328 29.7034 149.669 29.7034C148.977 29.7034 148.372 29.5733 147.855 29.3131C147.344 29.0461 146.947 28.6831 146.665 28.2243C146.383 27.7587 146.242 27.228 146.242 26.6323C146.242 26.1187 146.356 25.6496 146.585 25.2251C146.813 24.8005 147.142 24.4376 147.572 24.1363C148.009 23.8282 148.537 23.5953 149.155 23.4378C149.78 23.2735 150.482 23.1913 151.262 23.1913H153.984ZM158.722 20.757V29.498H157.925V18.3843H158.711L158.722 20.757ZM158.57 23.0887L158.178 22.6162C158.238 22.0273 158.379 21.4657 158.601 20.9316C158.829 20.3975 159.128 19.9251 159.498 19.5142C159.874 19.1033 160.311 18.7781 160.808 18.5384C161.312 18.2987 161.867 18.1789 162.472 18.1789C163.016 18.1789 163.503 18.2576 163.933 18.4152C164.364 18.5658 164.726 18.8055 165.022 19.1342C165.325 19.4628 165.553 19.8874 165.707 20.4078C165.862 20.9213 165.94 21.5479 165.94 22.2875V29.498H165.143V22.2875C165.143 21.4109 165.026 20.7331 164.79 20.2537C164.555 19.7675 164.226 19.4252 163.802 19.2266C163.386 19.028 162.898 18.9287 162.341 18.9287C161.696 18.9287 161.138 19.0759 160.667 19.3704C160.204 19.658 159.82 20.0243 159.518 20.4694C159.215 20.9077 158.984 21.363 158.823 21.8355C158.668 22.308 158.584 22.7257 158.57 23.0887ZM176.504 18.3843H177.28V29.3234C177.28 30.2752 177.109 31.0969 176.766 31.7885C176.423 32.487 175.936 33.0211 175.304 33.3909C174.679 33.7675 173.93 33.9558 173.056 33.9558C172.559 33.9558 172.082 33.8805 171.625 33.7298C171.175 33.5792 170.758 33.36 170.375 33.0725C169.999 32.7917 169.673 32.4596 169.397 32.0761L169.891 31.5626C170.321 32.1035 170.789 32.5143 171.293 32.7951C171.803 33.0759 172.378 33.2162 173.016 33.2162C173.769 33.2162 174.401 33.0587 174.912 32.7438C175.422 32.4288 175.809 31.9803 176.071 31.3982C176.333 30.823 176.464 30.1382 176.464 29.3439V20.8289L176.504 18.3843ZM168.752 24.0439V23.8282C168.752 22.9585 168.846 22.1779 169.034 21.4863C169.222 20.7878 169.495 20.1955 169.851 19.7093C170.207 19.2163 170.64 18.8397 171.151 18.5795C171.669 18.3124 172.253 18.1789 172.905 18.1789C173.517 18.1789 174.058 18.2782 174.528 18.4768C175.005 18.6685 175.419 18.9458 175.768 19.3087C176.125 19.6648 176.414 20.086 176.635 20.5721C176.864 21.0515 177.035 21.5822 177.149 22.1642V25.9954C177.062 26.509 176.911 26.9918 176.696 27.4437C176.481 27.8888 176.195 28.2825 175.839 28.6249C175.483 28.9605 175.059 29.2241 174.569 29.4158C174.078 29.6076 173.517 29.7034 172.885 29.7034C172.24 29.7034 171.662 29.5665 171.151 29.2926C170.64 29.0187 170.207 28.6318 169.851 28.1319C169.495 27.632 169.222 27.0363 169.034 26.3447C168.846 25.6531 168.752 24.8861 168.752 24.0439ZM169.569 23.8282V24.0439C169.569 24.7492 169.636 25.3997 169.77 25.9954C169.911 26.5912 170.12 27.1082 170.395 27.5464C170.677 27.9847 171.034 28.3271 171.464 28.5736C171.894 28.8201 172.395 28.9433 172.966 28.9433C173.705 28.9433 174.327 28.8064 174.831 28.5325C175.335 28.2586 175.738 27.8956 176.041 27.4437C176.343 26.9918 176.555 26.4919 176.675 25.9441V22.3183C176.602 21.9691 176.487 21.5993 176.333 21.209C176.178 20.8118 175.96 20.442 175.677 20.0996C175.402 19.7573 175.046 19.48 174.609 19.2677C174.172 19.0485 173.631 18.939 172.986 18.939C172.408 18.939 171.901 19.0622 171.464 19.3087C171.034 19.5553 170.677 19.8977 170.395 20.3359C170.12 20.7741 169.911 21.2911 169.77 21.8869C169.636 22.4826 169.569 23.1297 169.569 23.8282ZM184.669 29.7034C183.984 29.7034 183.349 29.5699 182.764 29.3028C182.18 29.0289 181.669 28.6489 181.232 28.1627C180.795 27.6697 180.453 27.0876 180.204 26.4166C179.962 25.7455 179.841 25.0094 179.841 24.2082V23.7563C179.841 22.9277 179.962 22.1745 180.204 21.4966C180.453 20.8118 180.789 20.2229 181.212 19.7299C181.635 19.23 182.122 18.8465 182.674 18.5795C183.231 18.3124 183.826 18.1789 184.458 18.1789C185.096 18.1789 185.674 18.2987 186.192 18.5384C186.709 18.7781 187.153 19.1136 187.523 19.545C187.892 19.9764 188.174 20.49 188.369 21.0857C188.564 21.6815 188.661 22.3388 188.661 23.0578V23.746H180.345V22.9962H187.865V22.8627C187.859 22.1642 187.717 21.5171 187.442 20.9213C187.173 20.3256 186.786 19.8463 186.283 19.4833C185.779 19.1136 185.171 18.9287 184.458 18.9287C183.887 18.9287 183.366 19.052 182.895 19.2985C182.432 19.545 182.032 19.8874 181.696 20.3256C181.36 20.757 181.101 21.2672 180.919 21.856C180.738 22.4381 180.647 23.0715 180.647 23.7563V24.2082C180.647 24.8656 180.748 25.4819 180.95 26.0571C181.151 26.6323 181.434 27.139 181.796 27.5772C182.16 28.0087 182.586 28.3476 183.077 28.5941C183.568 28.8406 184.105 28.9639 184.69 28.9639C185.322 28.9639 185.9 28.8509 186.424 28.6249C186.948 28.399 187.425 28.0018 187.855 27.4334L188.379 27.834C188.137 28.1901 187.845 28.5085 187.503 28.7893C187.16 29.07 186.753 29.2926 186.283 29.4569C185.819 29.6212 185.281 29.7034 184.669 29.7034ZM191.948 20.2742V29.498H191.152V18.3843H191.938L191.948 20.2742ZM196.101 18.3021L196.051 19.0417C195.93 19.0211 195.809 19.004 195.688 18.9903C195.567 18.9766 195.439 18.9698 195.305 18.9698C194.727 18.9698 194.219 19.0862 193.782 19.319C193.353 19.5519 192.99 19.8703 192.694 20.2742C192.405 20.6783 192.187 21.1473 192.039 21.6814C191.891 22.2156 191.814 22.7873 191.807 23.3968L191.414 23.479C191.414 22.7189 191.491 22.017 191.646 21.3733C191.807 20.7296 192.049 20.1681 192.372 19.6888C192.694 19.2095 193.101 18.8397 193.591 18.5795C194.082 18.3124 194.659 18.1789 195.325 18.1789C195.486 18.1789 195.634 18.1926 195.769 18.22C195.903 18.2405 196.014 18.2679 196.101 18.3021Z" fill="white"/>
<path d="M35.8481 29.6892V28.4849L38.0627 28.3049V10.9319L35.8481 10.7519V9.53372H41.9076V10.7519L39.693 10.9319V19.0024H50.8609V10.9319L48.6462 10.7519V9.53372H50.8609H52.4914H54.7056V10.7519L52.4914 10.9319V28.3049L54.7056 28.4849V29.6892H48.6462V28.4849L50.8609 28.3049V20.4005H39.693V28.3049L41.9076 28.4849V29.6892H35.8481ZM63.4142 29.9799C62.1553 29.9799 61.0461 29.6708 60.0856 29.0525C59.1256 28.4249 58.3739 27.562 57.8306 26.4638C57.2872 25.3564 57.0156 24.0828 57.0156 22.6431V21.8817C57.0156 20.4513 57.2872 19.1777 57.8306 18.061C58.3739 16.9351 59.1078 16.0492 60.0317 15.4032C60.9645 14.7572 62.0014 14.4342 63.1426 14.4342C64.3475 14.4342 65.3756 14.6972 66.2267 15.2232C67.0873 15.7492 67.7437 16.4922 68.1969 17.452C68.6587 18.4025 68.8895 19.5238 68.8895 20.8158V22.2278H58.7L58.6728 22.8369C58.6817 23.9443 58.8812 24.9318 59.2706 25.7993C59.669 26.6668 60.2217 27.3498 60.9283 27.8481C61.6439 28.3465 62.4725 28.5956 63.4142 28.5956C64.3381 28.5956 65.1489 28.448 65.8462 28.1527C66.5528 27.8481 67.1731 27.4374 67.7076 26.9206L68.4006 28.0557C67.83 28.6095 67.137 29.0709 66.322 29.44C65.5159 29.8 64.5465 29.9799 63.4142 29.9799ZM58.8089 20.8435H67.2595V20.4282C67.2595 19.5515 67.0919 18.767 66.7565 18.0749C66.4304 17.3735 65.9597 16.8244 65.3437 16.4276C64.737 16.0307 64.0031 15.8323 63.1426 15.8323C62.3637 15.8323 61.6617 16.0492 61.0367 16.483C60.4117 16.9075 59.9003 17.4935 59.5015 18.241C59.112 18.9793 58.8722 19.8191 58.7817 20.7605L58.8089 20.8435ZM71.3078 29.6892V28.4849L73.5225 28.3049V9.49217L71.3078 9.31222V8.09406H75.1531V28.3049L77.3673 28.4849V29.6892H71.3078ZM79.65 29.6892V28.4849L81.8642 28.3049V9.49217L79.65 9.31222V8.09406H83.4948V28.3049L85.7095 28.4849V29.6892H79.65ZM94.4861 29.9799C93.1634 29.9799 92.0134 29.6615 91.035 29.0248C90.0661 28.3787 89.3097 27.4882 88.7664 26.353C88.232 25.2087 87.9645 23.9028 87.9645 22.4354V21.9786C87.9645 20.5113 88.232 19.21 88.7664 18.0749C89.3097 16.9398 90.0661 16.0492 91.035 15.4032C92.0134 14.7572 93.1545 14.4342 94.4589 14.4342C95.7722 14.4342 96.9134 14.7572 97.8823 15.4032C98.8606 16.0492 99.617 16.9398 100.151 18.0749C100.695 19.2008 100.966 20.5021 100.966 21.9786V22.4354C100.966 23.9121 100.695 25.2179 100.151 26.353C99.617 27.4882 98.8606 28.3787 97.8823 29.0248C96.9134 29.6615 95.7812 29.9799 94.4861 29.9799ZM94.4861 28.5956C95.4912 28.5956 96.3564 28.3234 97.0809 27.7789C97.8053 27.2344 98.3628 26.4961 98.7522 25.564C99.1417 24.6319 99.3364 23.5891 99.3364 22.4354V21.9786C99.3364 20.8343 99.1417 19.7961 98.7522 18.8639C98.3628 17.9319 97.8011 17.1935 97.0673 16.6491C96.3428 16.1046 95.4734 15.8323 94.4589 15.8323C93.4445 15.8323 92.5703 16.1046 91.8365 16.6491C91.112 17.1935 90.555 17.9319 90.1656 18.8639C89.7851 19.7961 89.595 20.8343 89.595 21.9786V22.4354C89.595 23.5983 89.7851 24.6457 90.1656 25.5778C90.555 26.5007 91.112 27.2344 91.8365 27.7789C92.5703 28.3234 93.4534 28.5956 94.4861 28.5956Z" fill="white"/>
<path d="M14.1704 4.51791C14.1704 3.8182 13.6137 3.25098 12.927 3.25098C12.2403 3.25098 11.6836 3.8182 11.6836 4.51791V9.15536C11.6836 9.85507 12.2403 10.4223 12.927 10.4223C13.6137 10.4223 14.1704 9.85507 14.1704 9.15536V4.51791Z" fill="#0061F1"/>
<path d="M21.97 8.79631C22.4568 8.30022 22.4568 7.4959 21.97 6.99981C21.4831 6.50372 20.6937 6.50372 20.2068 6.99981L16.9815 10.2861C16.4946 10.7822 16.4946 11.5865 16.9815 12.0826C17.4684 12.5787 18.2578 12.5787 18.7447 12.0826L21.97 8.79631Z" fill="#9E61FF"/>
<path d="M3.84498 8.79637C3.3581 8.30028 3.3581 7.49596 3.84498 6.99987C4.33187 6.50378 5.12126 6.50378 5.60814 6.99987L8.83344 10.2862C9.32032 10.7822 9.32032 11.5866 8.83344 12.0827C8.34656 12.5787 7.55716 12.5787 7.07028 12.0827L3.84498 8.79637Z" fill="#FF6161"/>
<path d="M1.24342 17.6893C0.556698 17.6893 2.75417e-07 17.122 1.77427e-07 16.4223C7.94368e-08 15.7226 0.556698 15.1554 1.24342 15.1554L5.7948 15.1554C6.48153 15.1554 7.03822 15.7226 7.03822 16.4223C7.03822 17.122 6.48153 17.6893 5.7948 17.6893L1.24342 17.6893Z" fill="#61F161"/>
<path d="M25.5803 26.4123L14.4326 17.2071C13.8191 16.7005 12.9033 17.1454 12.9033 17.9499V32.1615C12.9033 33.0447 13.9781 33.4557 14.5484 32.7906L18.4519 28.2383C18.6374 28.022 18.9086 27.9021 19.1903 27.9118L24.9576 28.1107C25.8572 28.1417 26.2796 26.9897 25.5803 26.4123Z" fill="white" stroke="white"/>
</svg>
